<?xml version="1.0" standalone="no"?>
<!DOCTYPE svg PUBLIC "-//W3C//DTD SVG 20010904//EN"
 "http://www.w3.org/TR/2001/REC-SVG-20010904/DTD/svg10.dtd">
<svg version="1.0" xmlns="http://www.w3.org/2000/svg"
 width="819.000000pt" height="224.000000pt" viewBox="0 0 819.000000 224.000000"
 preserveAspectRatio="xMidYMid meet">

<g transform="translate(0.000000,224.000000) scale(0.100000,-0.100000)"
fill="#000000" stroke="none">
<path d="M452 2034 c-54 -37 -52 -9 -52 -874 l0 -800 -66 0 c-59 0 -68 -3 -95
-29 -39 -40 -39 -82 0 -122 l30 -29 1005 2 1004 3 26 24 c36 34 36 93 0 126
-26 24 -33 25 -163 26 l-136 0 52 20 c54 21 89 55 99 95 4 14 -71 254 -210
676 -165 503 -221 659 -239 676 -44 42 -78 38 -242 -23 -82 -31 -157 -61 -165
-65 -11 -6 -25 1 -48 23 l-33 32 -145 3 -144 3 0 91 c0 89 0 90 -34 124 l-34
34 -194 0 c-159 0 -198 -3 -216 -16z m306 -916 l2 -758 -95 0 -95 0 0 754 c0
414 4 756 7 760 4 4 46 5 93 4 l85 -3 3 -757z m1021 -10 c101 -304 185 -557
187 -563 4 -9 -128 -65 -152 -65 -7 0 -373 1078 -378 1114 -1 8 126 64 149 65
6 1 93 -248 194 -551z m-659 -118 l0 -630 -95 0 -95 0 0 630 0 630 95 0 94 0
1 -630z m382 -150 c83 -250 153 -461 155 -467 4 -10 -36 -13 -181 -13 l-186 0
0 563 1 562 30 -95 c17 -52 99 -300 181 -550z"/>
<path d="M7730 1484 c-75 -32 -120 -110 -120 -206 l0 -38 -50 0 -50 0 0 -66 0
-66 50 4 50 3 0 -247 0 -248 85 0 85 0 0 248 0 247 65 -3 65 -4 0 66 0 66 -65
0 -65 0 0 43 c0 55 23 78 85 84 l45 6 0 63 0 64 -72 0 c-42 -1 -88 -7 -108
-16z"/>
<path d="M4690 1055 l0 -435 85 0 85 0 0 90 0 91 38 39 37 40 88 -130 88 -130
96 0 95 0 -24 33 c-13 17 -71 98 -127 180 l-103 147 39 43 c21 24 73 82 116
129 42 47 77 88 77 92 0 4 -44 5 -97 4 l-97 -3 -110 -125 c-61 -69 -112 -126
-115 -128 -4 -1 -6 109 -6 245 l0 248 -82 3 -83 3 0 -436z"/>
<path d="M5920 1055 l0 -435 85 0 85 0 0 210 0 210 28 30 c53 60 155 58 192
-3 18 -29 20 -52 20 -239 l0 -208 85 0 85 0 0 208 c0 239 -9 289 -66 352 -48
53 -106 74 -188 68 -54 -3 -74 -10 -111 -36 l-45 -32 0 155 0 155 -85 0 -85 0
0 -435z"/>
<path d="M7270 1055 l0 -435 85 0 85 0 0 435 0 435 -85 0 -85 0 0 -435z"/>
<path d="M2510 1049 l0 -430 228 3 227 3 60 30 c83 41 110 90 110 196 0 67 -4
81 -30 124 -18 29 -46 56 -70 69 -52 27 -52 28 -37 33 29 11 76 60 93 98 40
87 12 205 -60 253 -66 43 -121 52 -328 52 l-193 0 0 -431z m387 271 c17 -10
37 -29 43 -41 18 -33 6 -98 -24 -128 -25 -24 -34 -26 -131 -29 l-105 -4 0 111
0 111 93 0 c73 0 98 -4 124 -20z m49 -364 c29 -29 34 -41 34 -79 0 -89 -50
-117 -207 -117 l-93 0 0 115 0 115 116 0 116 0 34 -34z"/>
<path d="M3410 1239 c-75 -30 -150 -107 -179 -184 -33 -86 -27 -198 14 -273
36 -66 91 -117 164 -150 45 -21 71 -26 136 -26 159 1 277 88 320 239 44 150
-35 315 -184 387 -67 33 -197 36 -271 7z m214 -142 c106 -60 115 -246 15 -317
-49 -36 -133 -39 -179 -8 -74 51 -102 133 -75 223 32 110 143 157 239 102z"/>
<path d="M4150 1238 c-75 -29 -150 -105 -179 -183 -33 -86 -27 -198 14 -273
36 -66 91 -117 164 -150 45 -21 71 -26 137 -26 72 0 89 4 147 32 223 110 250
405 50 557 -87 66 -225 84 -333 43z m218 -145 c147 -95 84 -342 -86 -343 -174
-1 -233 246 -83 347 49 33 114 31 169 -4z"/>
<path d="M5452 1247 c-48 -18 -102 -65 -118 -103 -17 -40 -18 -107 -3 -137 33
-63 74 -89 207 -128 52 -15 102 -35 113 -45 39 -35 14 -87 -47 -100 -41 -8
-97 17 -125 55 -22 30 -26 31 -96 31 -82 0 -84 -3 -58 -68 32 -74 102 -124
203 -142 198 -35 368 124 296 277 -22 44 -92 85 -198 114 -134 35 -165 63
-132 113 29 45 117 35 151 -18 16 -24 23 -26 91 -26 80 0 84 3 63 57 -14 38
-56 81 -104 106 -49 25 -192 34 -243 14z"/>
<path d="M6787 1245 c-228 -84 -289 -391 -111 -554 148 -135 362 -108 485 62
45 62 41 67 -49 67 -76 0 -79 -1 -112 -35 -63 -65 -141 -70 -205 -14 -18 16
-39 46 -45 65 -21 63 -16 64 231 64 l219 0 0 23 c-1 56 -32 163 -61 209 -33
51 -91 97 -148 116 -46 16 -157 14 -204 -3z m183 -133 c33 -25 55 -65 47 -85
-5 -15 -25 -17 -137 -17 -149 0 -155 5 -99 73 48 58 132 71 189 29z"/>
</g>
</svg>
